<mxfile host="65bd71144e">
    <diagram name="Page-1" id="QmgooOB9zh-g-eOi-oqv">
        <mxGraphModel dx="2100" dy="2118" grid="1" gridSize="10" guides="1" tooltips="1" connect="1" arrows="1" fold="1" page="1" pageScale="1" pageWidth="850" pageHeight="1100" background="none" math="0" shadow="0">
            <root>
                <mxCell id="0"/>
                <mxCell id="1" parent="0"/>
                <mxCell id="6UBSCnJgMbBsTfhwPMBy-22" style="rounded=0;orthogonalLoop=1;jettySize=auto;html=1;exitX=1;exitY=0.5;exitDx=0;exitDy=0;entryX=0;entryY=0.5;entryDx=0;entryDy=0;endArrow=none;endFill=0;" parent="1" source="6UBSCnJgMbBsTfhwPMBy-1" target="6UBSCnJgMbBsTfhwPMBy-15" edge="1">
                    <mxGeometry relative="1" as="geometry"/>
                </mxCell>
                <mxCell id="6UBSCnJgMbBsTfhwPMBy-29" style="edgeStyle=none;rounded=0;orthogonalLoop=1;jettySize=auto;html=1;exitX=1;exitY=0;exitDx=0;exitDy=0;entryX=0;entryY=0.5;entryDx=0;entryDy=0;endArrow=none;endFill=0;" parent="1" source="6UBSCnJgMbBsTfhwPMBy-1" target="6UBSCnJgMbBsTfhwPMBy-12" edge="1">
                    <mxGeometry relative="1" as="geometry"/>
                </mxCell>
                <mxCell id="6UBSCnJgMbBsTfhwPMBy-163" style="edgeStyle=none;rounded=0;orthogonalLoop=1;jettySize=auto;html=1;exitX=0;exitY=1;exitDx=0;exitDy=0;entryX=0;entryY=0.5;entryDx=0;entryDy=0;endArrow=none;endFill=0;" parent="1" source="6UBSCnJgMbBsTfhwPMBy-1" target="6UBSCnJgMbBsTfhwPMBy-162" edge="1">
                    <mxGeometry relative="1" as="geometry"/>
                </mxCell>
                <mxCell id="6UBSCnJgMbBsTfhwPMBy-1" value="&lt;h1&gt;&lt;span style=&quot;font-weight: normal;&quot;&gt;user&lt;/span&gt;&lt;/h1&gt;" style="rounded=0;whiteSpace=wrap;html=1;" parent="1" vertex="1">
                    <mxGeometry x="920" y="-450" width="120" height="60" as="geometry"/>
                </mxCell>
                <mxCell id="6UBSCnJgMbBsTfhwPMBy-4" value="&lt;h1&gt;&lt;span style=&quot;font-weight: normal;&quot;&gt;goods&lt;/span&gt;&lt;/h1&gt;" style="rounded=0;whiteSpace=wrap;html=1;" parent="1" vertex="1">
                    <mxGeometry x="365" y="152" width="120" height="60" as="geometry"/>
                </mxCell>
                <mxCell id="6UBSCnJgMbBsTfhwPMBy-6" value="&lt;h1&gt;&lt;span style=&quot;font-weight: normal;&quot;&gt;order&lt;/span&gt;&lt;/h1&gt;" style="rounded=0;whiteSpace=wrap;html=1;" parent="1" vertex="1">
                    <mxGeometry x="800" y="-760" width="120" height="60" as="geometry"/>
                </mxCell>
                <mxCell id="6UBSCnJgMbBsTfhwPMBy-7" value="&lt;h1&gt;&lt;span style=&quot;font-weight: normal;&quot;&gt;info&lt;/span&gt;&lt;/h1&gt;" style="rounded=0;whiteSpace=wrap;html=1;" parent="1" vertex="1">
                    <mxGeometry x="602.5" y="80" width="120" height="60" as="geometry"/>
                </mxCell>
                <mxCell id="6UBSCnJgMbBsTfhwPMBy-8" value="&lt;h1&gt;&lt;span style=&quot;font-weight: normal;&quot;&gt;buyer&lt;/span&gt;&lt;br&gt;&lt;/h1&gt;" style="rounded=0;whiteSpace=wrap;html=1;" parent="1" vertex="1">
                    <mxGeometry x="542" y="-246" width="120" height="60" as="geometry"/>
                </mxCell>
                <mxCell id="6UBSCnJgMbBsTfhwPMBy-12" value="&lt;font style=&quot;font-size: 15px;&quot;&gt;&lt;i&gt;&lt;u&gt;id&lt;/u&gt;&lt;/i&gt;&lt;/font&gt;" style="ellipse;whiteSpace=wrap;html=1;" parent="1" vertex="1">
                    <mxGeometry x="1080" y="-490" width="100" height="40" as="geometry"/>
                </mxCell>
                <mxCell id="6UBSCnJgMbBsTfhwPMBy-15" value="&lt;span style=&quot;font-size: 15px;&quot;&gt;name&lt;/span&gt;" style="ellipse;whiteSpace=wrap;html=1;" parent="1" vertex="1">
                    <mxGeometry x="1080" y="-440" width="100" height="40" as="geometry"/>
                </mxCell>
                <mxCell id="6UBSCnJgMbBsTfhwPMBy-149" style="edgeStyle=none;rounded=0;orthogonalLoop=1;jettySize=auto;html=1;exitX=1;exitY=0.5;exitDx=0;exitDy=0;entryX=0;entryY=0.5;entryDx=0;entryDy=0;endArrow=none;endFill=0;" parent="1" edge="1">
                    <mxGeometry relative="1" as="geometry">
                        <mxPoint x="1230" y="140" as="sourcePoint"/>
                    </mxGeometry>
                </mxCell>
                <mxCell id="6UBSCnJgMbBsTfhwPMBy-50" style="edgeStyle=none;rounded=0;orthogonalLoop=1;jettySize=auto;html=1;entryX=0;entryY=0.5;entryDx=0;entryDy=0;endArrow=none;endFill=0;exitX=0.75;exitY=0;exitDx=0;exitDy=0;" parent="1" source="6UBSCnJgMbBsTfhwPMBy-3" target="6UBSCnJgMbBsTfhwPMBy-51" edge="1">
                    <mxGeometry relative="1" as="geometry">
                        <mxPoint x="323.75" y="-30" as="sourcePoint"/>
                    </mxGeometry>
                </mxCell>
                <mxCell id="6UBSCnJgMbBsTfhwPMBy-51" value="&lt;font style=&quot;font-size: 15px;&quot;&gt;&lt;i&gt;&lt;u&gt;id&lt;/u&gt;&lt;/i&gt;&lt;/font&gt;" style="ellipse;whiteSpace=wrap;html=1;" parent="1" vertex="1">
                    <mxGeometry x="283.75" y="-330" width="100" height="40" as="geometry"/>
                </mxCell>
                <mxCell id="6UBSCnJgMbBsTfhwPMBy-54" style="edgeStyle=none;rounded=0;orthogonalLoop=1;jettySize=auto;html=1;entryX=0;entryY=0.5;entryDx=0;entryDy=0;endArrow=none;endFill=0;exitX=1;exitY=0.5;exitDx=0;exitDy=0;" parent="1" source="6UBSCnJgMbBsTfhwPMBy-7" target="6UBSCnJgMbBsTfhwPMBy-55" edge="1">
                    <mxGeometry relative="1" as="geometry">
                        <mxPoint x="672.5" y="174" as="sourcePoint"/>
                    </mxGeometry>
                </mxCell>
                <mxCell id="6UBSCnJgMbBsTfhwPMBy-55" value="&lt;font style=&quot;font-size: 15px;&quot;&gt;&lt;i&gt;&lt;u&gt;id&lt;/u&gt;&lt;/i&gt;&lt;/font&gt;" style="ellipse;whiteSpace=wrap;html=1;" parent="1" vertex="1">
                    <mxGeometry x="777.5" y="84" width="100" height="40" as="geometry"/>
                </mxCell>
                <mxCell id="6UBSCnJgMbBsTfhwPMBy-56" style="edgeStyle=none;rounded=0;orthogonalLoop=1;jettySize=auto;html=1;entryX=0;entryY=0.5;entryDx=0;entryDy=0;endArrow=none;endFill=0;" parent="1" source="6UBSCnJgMbBsTfhwPMBy-4" target="6UBSCnJgMbBsTfhwPMBy-57" edge="1">
                    <mxGeometry relative="1" as="geometry">
                        <mxPoint x="430" y="354" as="sourcePoint"/>
                    </mxGeometry>
                </mxCell>
                <mxCell id="6UBSCnJgMbBsTfhwPMBy-57" value="&lt;font style=&quot;font-size: 15px;&quot;&gt;&lt;i&gt;&lt;u&gt;id&lt;/u&gt;&lt;/i&gt;&lt;/font&gt;" style="ellipse;whiteSpace=wrap;html=1;" parent="1" vertex="1">
                    <mxGeometry x="320" y="304" width="100" height="40" as="geometry"/>
                </mxCell>
                <mxCell id="6UBSCnJgMbBsTfhwPMBy-70" style="rounded=0;orthogonalLoop=1;jettySize=auto;html=1;exitX=0;exitY=0.75;exitDx=0;exitDy=0;entryX=0;entryY=0.5;entryDx=0;entryDy=0;endArrow=none;endFill=0;" parent="1" source="6UBSCnJgMbBsTfhwPMBy-4" target="6UBSCnJgMbBsTfhwPMBy-71" edge="1">
                    <mxGeometry relative="1" as="geometry">
                        <mxPoint x="350" y="219" as="sourcePoint"/>
                    </mxGeometry>
                </mxCell>
                <mxCell id="6UBSCnJgMbBsTfhwPMBy-71" value="&lt;span style=&quot;font-size: 15px;&quot;&gt;description&lt;/span&gt;" style="ellipse;whiteSpace=wrap;html=1;" parent="1" vertex="1">
                    <mxGeometry x="102.5" y="244" width="100" height="40" as="geometry"/>
                </mxCell>
                <mxCell id="6UBSCnJgMbBsTfhwPMBy-76" style="rounded=0;orthogonalLoop=1;jettySize=auto;html=1;exitX=0;exitY=1;exitDx=0;exitDy=0;entryX=0;entryY=0.5;entryDx=0;entryDy=0;endArrow=none;endFill=0;" parent="1" source="6UBSCnJgMbBsTfhwPMBy-4" target="6UBSCnJgMbBsTfhwPMBy-77" edge="1">
                    <mxGeometry relative="1" as="geometry">
                        <mxPoint x="370" y="239" as="sourcePoint"/>
                    </mxGeometry>
                </mxCell>
                <mxCell id="6UBSCnJgMbBsTfhwPMBy-77" value="&lt;span style=&quot;font-size: 15px;&quot;&gt;name&lt;/span&gt;" style="ellipse;whiteSpace=wrap;html=1;" parent="1" vertex="1">
                    <mxGeometry x="170" y="304" width="100" height="40" as="geometry"/>
                </mxCell>
                <mxCell id="6UBSCnJgMbBsTfhwPMBy-85" style="rounded=0;orthogonalLoop=1;jettySize=auto;html=1;entryX=0.5;entryY=1;entryDx=0;entryDy=0;endArrow=none;endFill=0;exitX=0.5;exitY=0;exitDx=0;exitDy=0;" parent="1" source="6UBSCnJgMbBsTfhwPMBy-94" target="6UBSCnJgMbBsTfhwPMBy-86" edge="1">
                    <mxGeometry relative="1" as="geometry">
                        <mxPoint x="742.5" y="234" as="sourcePoint"/>
                        <mxPoint x="769.9999999999854" y="-46" as="targetPoint"/>
                    </mxGeometry>
                </mxCell>
                <mxCell id="6UBSCnJgMbBsTfhwPMBy-86" value="&lt;span style=&quot;font-size: 15px;&quot;&gt;post&lt;/span&gt;" style="ellipse;whiteSpace=wrap;html=1;" parent="1" vertex="1">
                    <mxGeometry x="760" y="-56" width="100" height="40" as="geometry"/>
                </mxCell>
                <mxCell id="6UBSCnJgMbBsTfhwPMBy-91" style="edgeStyle=none;rounded=0;orthogonalLoop=1;jettySize=auto;html=1;exitX=0;exitY=0.5;exitDx=0;exitDy=0;endArrow=none;endFill=0;shape=link;entryX=1;entryY=0.75;entryDx=0;entryDy=0;" parent="1" source="6UBSCnJgMbBsTfhwPMBy-87" target="6UBSCnJgMbBsTfhwPMBy-4" edge="1">
                    <mxGeometry relative="1" as="geometry">
                        <mxPoint x="590" y="190" as="targetPoint"/>
                    </mxGeometry>
                </mxCell>
                <mxCell id="6UBSCnJgMbBsTfhwPMBy-187" style="edgeStyle=none;rounded=0;orthogonalLoop=1;jettySize=auto;html=1;exitX=1;exitY=0.5;exitDx=0;exitDy=0;entryX=0.5;entryY=1;entryDx=0;entryDy=0;" parent="1" source="6UBSCnJgMbBsTfhwPMBy-87" target="6UBSCnJgMbBsTfhwPMBy-153" edge="1">
                    <mxGeometry relative="1" as="geometry">
                        <Array as="points">
                            <mxPoint x="1080" y="374"/>
                        </Array>
                    </mxGeometry>
                </mxCell>
                <mxCell id="6UBSCnJgMbBsTfhwPMBy-87" value="&lt;font style=&quot;font-size: 19px;&quot;&gt;sell&lt;/font&gt;" style="rhombus;whiteSpace=wrap;html=1;" parent="1" vertex="1">
                    <mxGeometry x="797.5" y="334" width="80" height="80" as="geometry"/>
                </mxCell>
                <mxCell id="6UBSCnJgMbBsTfhwPMBy-93" style="rounded=0;orthogonalLoop=1;jettySize=auto;html=1;exitX=1;exitY=0;exitDx=0;exitDy=0;entryX=0;entryY=0.5;entryDx=0;entryDy=0;endArrow=none;endFill=0;" parent="1" source="6UBSCnJgMbBsTfhwPMBy-7" target="6UBSCnJgMbBsTfhwPMBy-94" edge="1">
                    <mxGeometry relative="1" as="geometry">
                        <mxPoint x="582.5" y="224" as="sourcePoint"/>
                    </mxGeometry>
                </mxCell>
                <mxCell id="6UBSCnJgMbBsTfhwPMBy-94" value="&lt;span style=&quot;font-size: 15px;&quot;&gt;address&lt;/span&gt;" style="ellipse;whiteSpace=wrap;html=1;" parent="1" vertex="1">
                    <mxGeometry x="770" y="24" width="115" height="40" as="geometry"/>
                </mxCell>
                <mxCell id="6UBSCnJgMbBsTfhwPMBy-96" style="rounded=0;orthogonalLoop=1;jettySize=auto;html=1;exitX=1;exitY=0;exitDx=0;exitDy=0;entryX=0;entryY=0.5;entryDx=0;entryDy=0;endArrow=none;endFill=0;" parent="1" source="6UBSCnJgMbBsTfhwPMBy-94" target="6UBSCnJgMbBsTfhwPMBy-97" edge="1">
                    <mxGeometry relative="1" as="geometry">
                        <mxPoint x="850" y="104" as="sourcePoint"/>
                        <mxPoint x="950" y="44" as="targetPoint"/>
                    </mxGeometry>
                </mxCell>
                <mxCell id="6UBSCnJgMbBsTfhwPMBy-97" value="&lt;span style=&quot;font-size: 15px;&quot;&gt;street&lt;/span&gt;" style="ellipse;whiteSpace=wrap;html=1;" parent="1" vertex="1">
                    <mxGeometry x="915" y="-46" width="115" height="40" as="geometry"/>
                </mxCell>
                <mxCell id="6UBSCnJgMbBsTfhwPMBy-98" style="rounded=0;orthogonalLoop=1;jettySize=auto;html=1;exitX=1;exitY=1;exitDx=0;exitDy=0;entryX=0;entryY=0.5;entryDx=0;entryDy=0;endArrow=none;endFill=0;" parent="1" source="6UBSCnJgMbBsTfhwPMBy-94" target="6UBSCnJgMbBsTfhwPMBy-99" edge="1">
                    <mxGeometry relative="1" as="geometry">
                        <mxPoint x="890" y="124" as="sourcePoint"/>
                    </mxGeometry>
                </mxCell>
                <mxCell id="6UBSCnJgMbBsTfhwPMBy-99" value="&lt;span style=&quot;font-size: 15px;&quot;&gt;country&lt;/span&gt;" style="ellipse;whiteSpace=wrap;html=1;" parent="1" vertex="1">
                    <mxGeometry x="915" y="84" width="115" height="40" as="geometry"/>
                </mxCell>
                <mxCell id="6UBSCnJgMbBsTfhwPMBy-100" style="rounded=0;orthogonalLoop=1;jettySize=auto;html=1;exitX=1;exitY=0.5;exitDx=0;exitDy=0;entryX=0;entryY=0.5;entryDx=0;entryDy=0;endArrow=none;endFill=0;" parent="1" source="6UBSCnJgMbBsTfhwPMBy-94" target="6UBSCnJgMbBsTfhwPMBy-101" edge="1">
                    <mxGeometry relative="1" as="geometry">
                        <mxPoint x="880" y="114" as="sourcePoint"/>
                    </mxGeometry>
                </mxCell>
                <mxCell id="6UBSCnJgMbBsTfhwPMBy-101" value="&lt;span style=&quot;font-size: 15px;&quot;&gt;city&lt;br&gt;&lt;/span&gt;" style="ellipse;whiteSpace=wrap;html=1;" parent="1" vertex="1">
                    <mxGeometry x="915" y="24" width="115" height="40" as="geometry"/>
                </mxCell>
                <mxCell id="6UBSCnJgMbBsTfhwPMBy-115" style="edgeStyle=none;rounded=0;orthogonalLoop=1;jettySize=auto;html=1;exitX=0.5;exitY=0;exitDx=0;exitDy=0;entryX=0.5;entryY=0;entryDx=0;entryDy=0;endArrow=none;endFill=0;shape=link;" parent="1" source="6UBSCnJgMbBsTfhwPMBy-108" target="6UBSCnJgMbBsTfhwPMBy-7" edge="1">
                    <mxGeometry relative="1" as="geometry"/>
                </mxCell>
                <mxCell id="6UBSCnJgMbBsTfhwPMBy-146" style="edgeStyle=none;rounded=0;orthogonalLoop=1;jettySize=auto;html=1;exitX=0.5;exitY=1;exitDx=0;exitDy=0;entryX=0.5;entryY=1;entryDx=0;entryDy=0;" parent="1" source="6UBSCnJgMbBsTfhwPMBy-108" target="6UBSCnJgMbBsTfhwPMBy-8" edge="1">
                    <mxGeometry relative="1" as="geometry">
                        <mxPoint x="1452.5" y="230" as="targetPoint"/>
                    </mxGeometry>
                </mxCell>
                <mxCell id="6UBSCnJgMbBsTfhwPMBy-108" value="&lt;span style=&quot;font-size: 19px;&quot;&gt;have&lt;/span&gt;" style="rhombus;whiteSpace=wrap;html=1;" parent="1" vertex="1">
                    <mxGeometry x="570" y="-26" width="80" height="80" as="geometry"/>
                </mxCell>
                <mxCell id="6UBSCnJgMbBsTfhwPMBy-109" style="rounded=0;orthogonalLoop=1;jettySize=auto;html=1;endArrow=none;endFill=0;entryX=0;entryY=0.5;entryDx=0;entryDy=0;exitX=1;exitY=1;exitDx=0;exitDy=0;" parent="1" source="6UBSCnJgMbBsTfhwPMBy-7" target="6UBSCnJgMbBsTfhwPMBy-112" edge="1">
                    <mxGeometry relative="1" as="geometry">
                        <mxPoint x="722.5" y="154" as="sourcePoint"/>
                        <mxPoint x="711.5" y="380" as="targetPoint"/>
                    </mxGeometry>
                </mxCell>
                <mxCell id="6UBSCnJgMbBsTfhwPMBy-112" value="phone" style="ellipse;whiteSpace=wrap;html=1;fillColor=none;fontSize=15;" parent="1" vertex="1">
                    <mxGeometry x="780" y="212" width="95" height="38" as="geometry"/>
                </mxCell>
                <mxCell id="6UBSCnJgMbBsTfhwPMBy-124" style="rounded=0;orthogonalLoop=1;jettySize=auto;html=1;exitX=0.25;exitY=0;exitDx=0;exitDy=0;entryX=1;entryY=0.5;entryDx=0;entryDy=0;endArrow=none;endFill=0;" parent="1" source="6UBSCnJgMbBsTfhwPMBy-3" target="6UBSCnJgMbBsTfhwPMBy-125" edge="1">
                    <mxGeometry relative="1" as="geometry">
                        <mxPoint x="276.75" y="-194" as="sourcePoint"/>
                        <mxPoint x="366.25" y="-180" as="targetPoint"/>
                    </mxGeometry>
                </mxCell>
                <mxCell id="6UBSCnJgMbBsTfhwPMBy-125" value="&lt;span style=&quot;font-size: 15px;&quot;&gt;total_price&lt;/span&gt;" style="ellipse;whiteSpace=wrap;html=1;" parent="1" vertex="1">
                    <mxGeometry x="96.25" y="-330" width="115" height="40" as="geometry"/>
                </mxCell>
                <mxCell id="6UBSCnJgMbBsTfhwPMBy-129" style="edgeStyle=none;rounded=0;orthogonalLoop=1;jettySize=auto;html=1;exitX=0.5;exitY=0;exitDx=0;exitDy=0;entryX=0.5;entryY=1;entryDx=0;entryDy=0;endArrow=none;endFill=0;" parent="1" source="6UBSCnJgMbBsTfhwPMBy-130" target="6UBSCnJgMbBsTfhwPMBy-3" edge="1">
                    <mxGeometry relative="1" as="geometry">
                        <mxPoint x="-120" y="-100" as="targetPoint"/>
                    </mxGeometry>
                </mxCell>
                <mxCell id="6UBSCnJgMbBsTfhwPMBy-130" value="&lt;span style=&quot;font-size: 19px;&quot;&gt;contain&lt;/span&gt;" style="rhombus;whiteSpace=wrap;html=1;" parent="1" vertex="1">
                    <mxGeometry x="203.75" y="-136" width="80" height="80" as="geometry"/>
                </mxCell>
                <mxCell id="6UBSCnJgMbBsTfhwPMBy-133" style="edgeStyle=none;rounded=0;orthogonalLoop=1;jettySize=auto;html=1;exitX=0.5;exitY=0;exitDx=0;exitDy=0;entryX=0.5;entryY=1;entryDx=0;entryDy=0;endArrow=none;endFill=0;" parent="1" source="XJRDdhlwDgM6eqXqExOu-32" target="6UBSCnJgMbBsTfhwPMBy-130" edge="1">
                    <mxGeometry relative="1" as="geometry">
                        <mxPoint x="99" y="-231" as="targetPoint"/>
                        <mxPoint x="99" y="-165" as="sourcePoint"/>
                        <Array as="points">
                            <mxPoint x="244" y="-16"/>
                        </Array>
                    </mxGeometry>
                </mxCell>
                <mxCell id="6UBSCnJgMbBsTfhwPMBy-139" value="&lt;font style=&quot;font-size: 19px;&quot;&gt;own&lt;/font&gt;" style="rhombus;whiteSpace=wrap;html=1;" parent="1" vertex="1">
                    <mxGeometry x="383.75" y="-256" width="80" height="80" as="geometry"/>
                </mxCell>
                <mxCell id="6UBSCnJgMbBsTfhwPMBy-144" value="" style="shape=mxgraph.arrows2.wedgeArrow;html=1;bendable=0;startWidth=6.666666666666668;fillColor=strokeColor;defaultFillColor=invert;defaultGradientColor=invert;rounded=0;" parent="1" source="6UBSCnJgMbBsTfhwPMBy-3" edge="1">
                    <mxGeometry width="100" height="100" relative="1" as="geometry">
                        <mxPoint x="243.57999999999998" y="-259.65999999999997" as="sourcePoint"/>
                        <mxPoint x="243.57999999999998" y="-250" as="targetPoint"/>
                    </mxGeometry>
                </mxCell>
                <mxCell id="6UBSCnJgMbBsTfhwPMBy-153" value="&lt;h1&gt;&lt;span style=&quot;font-weight: normal;&quot;&gt;admin&lt;/span&gt;&lt;br&gt;&lt;/h1&gt;" style="rounded=0;whiteSpace=wrap;html=1;" parent="1" vertex="1">
                    <mxGeometry x="1020" y="-236" width="120" height="60" as="geometry"/>
                </mxCell>
                <mxCell id="6UBSCnJgMbBsTfhwPMBy-160" style="rounded=0;orthogonalLoop=1;jettySize=auto;html=1;entryX=0;entryY=0.5;entryDx=0;entryDy=0;endArrow=none;endFill=0;exitX=0.75;exitY=1;exitDx=0;exitDy=0;" parent="1" source="6UBSCnJgMbBsTfhwPMBy-4" target="6UBSCnJgMbBsTfhwPMBy-161" edge="1">
                    <mxGeometry relative="1" as="geometry">
                        <mxPoint x="730" y="344" as="sourcePoint"/>
                    </mxGeometry>
                </mxCell>
                <mxCell id="6UBSCnJgMbBsTfhwPMBy-161" value="&lt;span style=&quot;font-size: 15px;&quot;&gt;infomation_pic&lt;br&gt;&lt;/span&gt;" style="ellipse;whiteSpace=wrap;html=1;" parent="1" vertex="1">
                    <mxGeometry x="460" y="314" width="110" height="50" as="geometry"/>
                </mxCell>
                <mxCell id="6UBSCnJgMbBsTfhwPMBy-166" style="edgeStyle=none;rounded=0;orthogonalLoop=1;jettySize=auto;html=1;exitX=0.5;exitY=1;exitDx=0;exitDy=0;entryX=1;entryY=0.5;entryDx=0;entryDy=0;endArrow=none;endFill=0;" parent="1" source="6UBSCnJgMbBsTfhwPMBy-162" target="6UBSCnJgMbBsTfhwPMBy-8" edge="1">
                    <mxGeometry relative="1" as="geometry"/>
                </mxCell>
                <mxCell id="6UBSCnJgMbBsTfhwPMBy-167" style="edgeStyle=none;rounded=0;orthogonalLoop=1;jettySize=auto;html=1;exitX=0.5;exitY=0;exitDx=0;exitDy=0;entryX=0;entryY=0.5;entryDx=0;entryDy=0;endArrow=none;endFill=0;" parent="1" source="6UBSCnJgMbBsTfhwPMBy-162" target="6UBSCnJgMbBsTfhwPMBy-153" edge="1">
                    <mxGeometry relative="1" as="geometry"/>
                </mxCell>
                <mxCell id="6UBSCnJgMbBsTfhwPMBy-162" value="&lt;font style=&quot;font-size: 18px;&quot;&gt;ISA&lt;br&gt;&lt;br&gt;&lt;/font&gt;" style="triangle;whiteSpace=wrap;html=1;rotation=0;direction=south;" parent="1" vertex="1">
                    <mxGeometry x="855" y="-311" width="80" height="70" as="geometry"/>
                </mxCell>
                <mxCell id="6UBSCnJgMbBsTfhwPMBy-182" value="" style="edgeStyle=none;rounded=0;orthogonalLoop=1;jettySize=auto;html=1;entryX=0.5;entryY=1;entryDx=0;entryDy=0;endArrow=none;endFill=0;exitX=0.5;exitY=0;exitDx=0;exitDy=0;" parent="1" source="6UBSCnJgMbBsTfhwPMBy-6" target="6UBSCnJgMbBsTfhwPMBy-49" edge="1">
                    <mxGeometry relative="1" as="geometry">
                        <mxPoint x="645" y="-990" as="sourcePoint"/>
                        <mxPoint x="645" y="-1090" as="targetPoint"/>
                    </mxGeometry>
                </mxCell>
                <mxCell id="6UBSCnJgMbBsTfhwPMBy-49" value="&lt;font style=&quot;font-size: 15px;&quot;&gt;&lt;i&gt;&lt;u&gt;id&lt;/u&gt;&lt;/i&gt;&lt;/font&gt;" style="ellipse;whiteSpace=wrap;html=1;" parent="1" vertex="1">
                    <mxGeometry x="810" y="-890" width="100" height="40" as="geometry"/>
                </mxCell>
                <mxCell id="6UBSCnJgMbBsTfhwPMBy-205" style="rounded=0;orthogonalLoop=1;jettySize=auto;html=1;exitX=1;exitY=0.25;exitDx=0;exitDy=0;entryX=0;entryY=0.5;entryDx=0;entryDy=0;endArrow=none;endFill=0;" parent="1" target="6UBSCnJgMbBsTfhwPMBy-206" edge="1">
                    <mxGeometry relative="1" as="geometry">
                        <mxPoint x="870" y="-760" as="sourcePoint"/>
                        <mxPoint x="932.5" y="-705" as="targetPoint"/>
                    </mxGeometry>
                </mxCell>
                <mxCell id="6UBSCnJgMbBsTfhwPMBy-206" value="&lt;span style=&quot;font-size: 15px;&quot;&gt;payment&lt;/span&gt;" style="ellipse;whiteSpace=wrap;html=1;" parent="1" vertex="1">
                    <mxGeometry x="930" y="-860" width="115" height="40" as="geometry"/>
                </mxCell>
                <mxCell id="6UBSCnJgMbBsTfhwPMBy-210" style="rounded=0;orthogonalLoop=1;jettySize=auto;html=1;exitX=1;exitY=0.25;exitDx=0;exitDy=0;entryX=1;entryY=1;entryDx=0;entryDy=0;endArrow=none;endFill=0;" parent="1" target="6UBSCnJgMbBsTfhwPMBy-211" edge="1">
                    <mxGeometry relative="1" as="geometry">
                        <mxPoint x="820" y="-760" as="sourcePoint"/>
                        <mxPoint x="882.5" y="-705" as="targetPoint"/>
                    </mxGeometry>
                </mxCell>
                <mxCell id="6UBSCnJgMbBsTfhwPMBy-211" value="&lt;span style=&quot;font-size: 15px;&quot;&gt;date&lt;/span&gt;" style="ellipse;whiteSpace=wrap;html=1;" parent="1" vertex="1">
                    <mxGeometry x="680" y="-880" width="115" height="40" as="geometry"/>
                </mxCell>
                <mxCell id="6UBSCnJgMbBsTfhwPMBy-219" style="edgeStyle=none;rounded=0;orthogonalLoop=1;jettySize=auto;html=1;exitX=0;exitY=0.5;exitDx=0;exitDy=0;entryX=0;entryY=0.5;entryDx=0;entryDy=0;" parent="1" source="6UBSCnJgMbBsTfhwPMBy-212" target="6UBSCnJgMbBsTfhwPMBy-3" edge="1">
                    <mxGeometry relative="1" as="geometry">
                        <mxPoint x="-2.4999999999997726" y="-360" as="sourcePoint"/>
                        <mxPoint x="-200" y="-176" as="targetPoint"/>
                        <Array as="points">
                            <mxPoint x="440" y="-510"/>
                            <mxPoint x="60" y="-510"/>
                            <mxPoint x="60" y="-220"/>
                        </Array>
                    </mxGeometry>
                </mxCell>
                <mxCell id="6UBSCnJgMbBsTfhwPMBy-212" value="&lt;font style=&quot;font-size: 19px;&quot;&gt;deal&lt;br&gt;&lt;/font&gt;" style="rhombus;whiteSpace=wrap;html=1;" parent="1" vertex="1">
                    <mxGeometry x="440" y="-760" width="80" height="80" as="geometry"/>
                </mxCell>
                <mxCell id="6UBSCnJgMbBsTfhwPMBy-3" value="&lt;h1&gt;&lt;font style=&quot;font-size: 24px; font-weight: normal;&quot;&gt;&lt;font style=&quot;&quot;&gt;&amp;nbsp;c&lt;/font&gt;art&amp;nbsp;&lt;/font&gt;&lt;/h1&gt;" style="rounded=0;whiteSpace=wrap;html=1;" parent="1" vertex="1">
                    <mxGeometry x="183.75" y="-250" width="120" height="60" as="geometry"/>
                </mxCell>
                <mxCell id="6UBSCnJgMbBsTfhwPMBy-220" style="edgeStyle=none;rounded=0;orthogonalLoop=1;jettySize=auto;html=1;exitX=0;exitY=0.5;exitDx=0;exitDy=0;shape=link;entryX=0;entryY=0.75;entryDx=0;entryDy=0;" parent="1" source="6UBSCnJgMbBsTfhwPMBy-221" target="6UBSCnJgMbBsTfhwPMBy-6" edge="1">
                    <mxGeometry relative="1" as="geometry">
                        <mxPoint x="800" y="-740" as="targetPoint"/>
                    </mxGeometry>
                </mxCell>
                <mxCell id="6UBSCnJgMbBsTfhwPMBy-223" style="edgeStyle=none;rounded=0;orthogonalLoop=1;jettySize=auto;html=1;exitX=0.5;exitY=1;exitDx=0;exitDy=0;entryX=0.5;entryY=0;entryDx=0;entryDy=0;" parent="1" source="6UBSCnJgMbBsTfhwPMBy-221" target="6UBSCnJgMbBsTfhwPMBy-8" edge="1">
                    <mxGeometry relative="1" as="geometry">
                        <Array as="points"/>
                    </mxGeometry>
                </mxCell>
                <mxCell id="6UBSCnJgMbBsTfhwPMBy-221" value="&lt;font style=&quot;font-size: 19px;&quot;&gt;pay&lt;br&gt;&lt;/font&gt;" style="rhombus;whiteSpace=wrap;html=1;" parent="1" vertex="1">
                    <mxGeometry x="562" y="-620" width="80" height="80" as="geometry"/>
                </mxCell>
                <mxCell id="6UBSCnJgMbBsTfhwPMBy-234" style="edgeStyle=none;rounded=0;orthogonalLoop=1;jettySize=auto;html=1;exitX=0.5;exitY=1;exitDx=0;exitDy=0;entryX=1;entryY=0;entryDx=0;entryDy=0;endArrow=none;endFill=0;" parent="1" source="6UBSCnJgMbBsTfhwPMBy-228" target="6UBSCnJgMbBsTfhwPMBy-153" edge="1">
                    <mxGeometry relative="1" as="geometry">
                        <Array as="points"/>
                    </mxGeometry>
                </mxCell>
                <mxCell id="6UBSCnJgMbBsTfhwPMBy-228" value="&lt;span style=&quot;font-size: 19px;&quot;&gt;view&lt;/span&gt;" style="rhombus;whiteSpace=wrap;html=1;" parent="1" vertex="1">
                    <mxGeometry x="1220" y="-316" width="80" height="80" as="geometry"/>
                </mxCell>
                <mxCell id="XJRDdhlwDgM6eqXqExOu-2" value="disjoint" style="text;html=1;strokeColor=none;fillColor=none;align=center;verticalAlign=middle;whiteSpace=wrap;rounded=0;" parent="1" vertex="1">
                    <mxGeometry x="865" y="-241" width="75" height="30" as="geometry"/>
                </mxCell>
                <mxCell id="XJRDdhlwDgM6eqXqExOu-6" style="rounded=0;orthogonalLoop=1;jettySize=auto;html=1;entryX=0;entryY=0.5;entryDx=0;entryDy=0;endArrow=none;endFill=0;exitX=0;exitY=0;exitDx=0;exitDy=0;" parent="1" source="XJRDdhlwDgM6eqXqExOu-32" target="XJRDdhlwDgM6eqXqExOu-7" edge="1">
                    <mxGeometry relative="1" as="geometry">
                        <mxPoint x="-100" y="24.5" as="sourcePoint"/>
                    </mxGeometry>
                </mxCell>
                <mxCell id="XJRDdhlwDgM6eqXqExOu-7" value="price" style="ellipse;whiteSpace=wrap;html=1;fontSize=16;" parent="1" vertex="1">
                    <mxGeometry x="-140" y="-80" width="100" height="40" as="geometry"/>
                </mxCell>
                <mxCell id="XJRDdhlwDgM6eqXqExOu-9" style="rounded=0;orthogonalLoop=1;jettySize=auto;html=1;entryX=0;entryY=0.5;entryDx=0;entryDy=0;endArrow=none;endFill=0;exitX=0;exitY=0.5;exitDx=0;exitDy=0;" parent="1" source="XJRDdhlwDgM6eqXqExOu-32" target="XJRDdhlwDgM6eqXqExOu-10" edge="1">
                    <mxGeometry relative="1" as="geometry">
                        <mxPoint x="-110" y="34.5" as="sourcePoint"/>
                    </mxGeometry>
                </mxCell>
                <mxCell id="XJRDdhlwDgM6eqXqExOu-10" value="&lt;span style=&quot;font-size: 15px;&quot;&gt;type_name&lt;/span&gt;" style="ellipse;whiteSpace=wrap;html=1;" parent="1" vertex="1">
                    <mxGeometry x="-170" y="4" width="100" height="40" as="geometry"/>
                </mxCell>
                <mxCell id="XJRDdhlwDgM6eqXqExOu-15" style="rounded=0;orthogonalLoop=1;jettySize=auto;html=1;exitX=0.094;exitY=1.009;exitDx=0;exitDy=0;entryX=0;entryY=0.5;entryDx=0;entryDy=0;endArrow=none;endFill=0;exitPerimeter=0;" parent="1" source="6UBSCnJgMbBsTfhwPMBy-4" target="XJRDdhlwDgM6eqXqExOu-16" edge="1">
                    <mxGeometry relative="1" as="geometry">
                        <mxPoint x="300" y="354" as="sourcePoint"/>
                    </mxGeometry>
                </mxCell>
                <mxCell id="XJRDdhlwDgM6eqXqExOu-16" value="&lt;span style=&quot;font-size: 15px;&quot;&gt;picture&lt;/span&gt;" style="ellipse;whiteSpace=wrap;html=1;" parent="1" vertex="1">
                    <mxGeometry x="250" y="364" width="100" height="40" as="geometry"/>
                </mxCell>
                <mxCell id="XJRDdhlwDgM6eqXqExOu-18" style="rounded=0;orthogonalLoop=1;jettySize=auto;html=1;entryX=0;entryY=0.5;entryDx=0;entryDy=0;endArrow=none;endFill=0;" parent="1" target="XJRDdhlwDgM6eqXqExOu-19" edge="1">
                    <mxGeometry relative="1" as="geometry">
                        <mxPoint x="1040" y="-390" as="sourcePoint"/>
                    </mxGeometry>
                </mxCell>
                <mxCell id="XJRDdhlwDgM6eqXqExOu-19" value="&lt;font style=&quot;font-size: 15px;&quot;&gt;salt&lt;/font&gt;" style="ellipse;whiteSpace=wrap;html=1;" parent="1" vertex="1">
                    <mxGeometry x="1080" y="-390.5" width="100" height="40" as="geometry"/>
                </mxCell>
                <mxCell id="XJRDdhlwDgM6eqXqExOu-20" value="&lt;h1&gt;&lt;span style=&quot;font-weight: normal;&quot;&gt;security&lt;/span&gt;&lt;/h1&gt;" style="rounded=0;whiteSpace=wrap;html=1;" parent="1" vertex="1">
                    <mxGeometry x="642" y="-463" width="120" height="60" as="geometry"/>
                </mxCell>
                <mxCell id="XJRDdhlwDgM6eqXqExOu-21" style="edgeStyle=none;rounded=0;orthogonalLoop=1;jettySize=auto;html=1;exitX=0;exitY=0.5;exitDx=0;exitDy=0;endArrow=none;endFill=0;shape=link;width=-8;entryX=1;entryY=0.5;entryDx=0;entryDy=0;" parent="1" target="XJRDdhlwDgM6eqXqExOu-20" edge="1">
                    <mxGeometry relative="1" as="geometry">
                        <mxPoint x="842" y="-433" as="targetPoint"/>
                        <mxPoint x="849.5" y="-433.0000000000002" as="sourcePoint"/>
                    </mxGeometry>
                </mxCell>
                <mxCell id="XJRDdhlwDgM6eqXqExOu-22" value="&lt;span style=&quot;font-size: 19px;&quot;&gt;have&lt;/span&gt;" style="rhombus;whiteSpace=wrap;html=1;" parent="1" vertex="1">
                    <mxGeometry x="805" y="-470.5" width="80" height="80" as="geometry"/>
                </mxCell>
                <mxCell id="XJRDdhlwDgM6eqXqExOu-24" style="edgeStyle=none;rounded=0;orthogonalLoop=1;jettySize=auto;html=1;endArrow=none;endFill=0;shape=link;width=-3.8461538461538467;exitX=0;exitY=0.25;exitDx=0;exitDy=0;" parent="1" source="6UBSCnJgMbBsTfhwPMBy-1" target="XJRDdhlwDgM6eqXqExOu-22" edge="1">
                    <mxGeometry relative="1" as="geometry">
                        <mxPoint x="860" y="-590" as="targetPoint"/>
                        <mxPoint x="880" y="-470" as="sourcePoint"/>
                    </mxGeometry>
                </mxCell>
                <mxCell id="XJRDdhlwDgM6eqXqExOu-25" style="rounded=0;orthogonalLoop=1;jettySize=auto;html=1;exitX=0.5;exitY=0;exitDx=0;exitDy=0;entryX=0;entryY=0.5;entryDx=0;entryDy=0;endArrow=none;endFill=0;" parent="1" source="XJRDdhlwDgM6eqXqExOu-20" target="XJRDdhlwDgM6eqXqExOu-26" edge="1">
                    <mxGeometry relative="1" as="geometry">
                        <mxPoint x="697" y="-610" as="sourcePoint"/>
                    </mxGeometry>
                </mxCell>
                <mxCell id="XJRDdhlwDgM6eqXqExOu-26" value="&lt;font style=&quot;font-size: 15px;&quot;&gt;hash_password&lt;/font&gt;" style="ellipse;whiteSpace=wrap;html=1;" parent="1" vertex="1">
                    <mxGeometry x="700" y="-550" width="130" height="40" as="geometry"/>
                </mxCell>
                <mxCell id="XJRDdhlwDgM6eqXqExOu-30" value="belong" style="rhombus;whiteSpace=wrap;html=1;" parent="1" vertex="1">
                    <mxGeometry x="70" y="139.5" width="80" height="80" as="geometry"/>
                </mxCell>
                <mxCell id="XJRDdhlwDgM6eqXqExOu-31" value="belong" style="rhombus;whiteSpace=wrap;html=1;" parent="1" vertex="1">
                    <mxGeometry x="77.5" y="147" width="65" height="65" as="geometry"/>
                </mxCell>
                <mxCell id="XJRDdhlwDgM6eqXqExOu-32" value="&lt;h1&gt;goods&lt;/h1&gt;" style="rounded=0;whiteSpace=wrap;html=1;movable=1;resizable=1;rotatable=1;deletable=1;editable=1;locked=0;connectable=1;" parent="1" vertex="1">
                    <mxGeometry x="2.5" y="-16" width="120" height="60" as="geometry"/>
                </mxCell>
                <mxCell id="XJRDdhlwDgM6eqXqExOu-34" value="&lt;h1&gt;&lt;span style=&quot;font-weight: normal;&quot;&gt;type&lt;/span&gt;&lt;/h1&gt;" style="rounded=0;whiteSpace=wrap;html=1;movable=1;resizable=1;rotatable=1;deletable=1;editable=1;locked=0;connectable=1;" parent="1" vertex="1">
                    <mxGeometry x="12.5" y="-11" width="100" height="50" as="geometry"/>
                </mxCell>
                <mxCell id="XJRDdhlwDgM6eqXqExOu-36" style="edgeStyle=none;rounded=0;orthogonalLoop=1;jettySize=auto;html=1;exitX=1;exitY=0.5;exitDx=0;exitDy=0;entryX=0;entryY=0.5;entryDx=0;entryDy=0;" parent="1" source="XJRDdhlwDgM6eqXqExOu-30" target="6UBSCnJgMbBsTfhwPMBy-4" edge="1">
                    <mxGeometry relative="1" as="geometry">
                        <mxPoint x="130" y="164" as="sourcePoint"/>
                        <mxPoint x="110" y="189" as="targetPoint"/>
                    </mxGeometry>
                </mxCell>
                <mxCell id="XJRDdhlwDgM6eqXqExOu-37" style="edgeStyle=none;rounded=0;orthogonalLoop=1;jettySize=auto;html=1;exitX=0.5;exitY=1;exitDx=0;exitDy=0;entryX=0;entryY=0.5;entryDx=0;entryDy=0;endArrow=none;endFill=0;shape=link;width=2.2222222222222214;" parent="1" source="XJRDdhlwDgM6eqXqExOu-34" target="XJRDdhlwDgM6eqXqExOu-30" edge="1">
                    <mxGeometry relative="1" as="geometry">
                        <mxPoint x="-390" y="214" as="sourcePoint"/>
                        <mxPoint x="-240" y="344" as="targetPoint"/>
                    </mxGeometry>
                </mxCell>
                <mxCell id="XJRDdhlwDgM6eqXqExOu-38" style="edgeStyle=none;rounded=0;orthogonalLoop=1;jettySize=auto;html=1;entryX=0;entryY=0.5;entryDx=0;entryDy=0;endArrow=none;endFill=0;exitX=0;exitY=1;exitDx=0;exitDy=0;" parent="1" source="XJRDdhlwDgM6eqXqExOu-32" target="XJRDdhlwDgM6eqXqExOu-39" edge="1">
                    <mxGeometry relative="1" as="geometry">
                        <mxPoint x="-50" y="90" as="sourcePoint"/>
                    </mxGeometry>
                </mxCell>
                <mxCell id="XJRDdhlwDgM6eqXqExOu-39" value="&lt;font style=&quot;font-size: 15px;&quot;&gt;&lt;i&gt;&lt;u&gt;id&lt;/u&gt;&lt;/i&gt;&lt;/font&gt;" style="ellipse;whiteSpace=wrap;html=1;" parent="1" vertex="1">
                    <mxGeometry x="-70" y="84" width="100" height="40" as="geometry"/>
                </mxCell>
                <mxCell id="2" style="rounded=0;orthogonalLoop=1;jettySize=auto;html=1;exitX=1;exitY=0.75;exitDx=0;exitDy=0;entryX=0;entryY=0.5;entryDx=0;entryDy=0;endArrow=none;endFill=0;" parent="1" source="6UBSCnJgMbBsTfhwPMBy-7" target="3" edge="1">
                    <mxGeometry relative="1" as="geometry">
                        <mxPoint x="702.5" y="-196" as="sourcePoint"/>
                    </mxGeometry>
                </mxCell>
                <mxCell id="3" value="&lt;font style=&quot;font-size: 15px;&quot;&gt;email&lt;br&gt;&lt;/font&gt;" style="ellipse;whiteSpace=wrap;html=1;" parent="1" vertex="1">
                    <mxGeometry x="777.5" y="150" width="100" height="40" as="geometry"/>
                </mxCell>
                <mxCell id="6" value="" style="edgeStyle=none;rounded=0;orthogonalLoop=1;jettySize=auto;html=1;exitX=0.5;exitY=1;exitDx=0;exitDy=0;entryX=0;entryY=1;entryDx=0;entryDy=0;endArrow=none;endFill=0;" parent="1" source="XJRDdhlwDgM6eqXqExOu-20" target="XJRDdhlwDgM6eqXqExOu-28" edge="1">
                    <mxGeometry relative="1" as="geometry">
                        <mxPoint x="842" y="-470" as="sourcePoint"/>
                        <mxPoint x="762.0000000000205" y="-549" as="targetPoint"/>
                    </mxGeometry>
                </mxCell>
                <mxCell id="XJRDdhlwDgM6eqXqExOu-28" value="&lt;font style=&quot;font-size: 15px;&quot;&gt;&lt;i&gt;&lt;u&gt;id&lt;/u&gt;&lt;/i&gt;&lt;/font&gt;" style="ellipse;whiteSpace=wrap;html=1;" parent="1" vertex="1">
                    <mxGeometry x="687.5" y="-370" width="100" height="40" as="geometry"/>
                </mxCell>
                <mxCell id="9" value="" style="group;" parent="1" vertex="1" connectable="0">
                    <mxGeometry x="670" y="-80.00000000000003" width="10" height="0.29000000000002046" as="geometry"/>
                </mxCell>
                <mxCell id="11" value="" style="shape=flexArrow;endArrow=classic;html=1;exitX=1;exitY=0.5;exitDx=0;exitDy=0;width=8.333333333333334;endSize=5.933333333333334;entryX=0;entryY=0.5;entryDx=0;entryDy=0;fillColor=none;" parent="1" source="6UBSCnJgMbBsTfhwPMBy-139" target="6UBSCnJgMbBsTfhwPMBy-8" edge="1">
                    <mxGeometry width="50" height="50" relative="1" as="geometry">
                        <mxPoint x="470" y="-186" as="sourcePoint"/>
                        <mxPoint x="520" y="-236" as="targetPoint"/>
                        <Array as="points"/>
                    </mxGeometry>
                </mxCell>
                <mxCell id="12" style="edgeStyle=none;rounded=0;orthogonalLoop=1;jettySize=auto;html=1;exitX=1;exitY=0.5;exitDx=0;exitDy=0;shape=link;" parent="1" source="6UBSCnJgMbBsTfhwPMBy-212" target="6UBSCnJgMbBsTfhwPMBy-6" edge="1">
                    <mxGeometry relative="1" as="geometry">
                        <mxPoint x="860" y="-690" as="targetPoint"/>
                    </mxGeometry>
                </mxCell>
                <mxCell id="15" value="" style="endArrow=none;html=1;shape=link;exitX=0.5;exitY=0;exitDx=0;exitDy=0;entryX=1;entryY=0.5;entryDx=0;entryDy=0;" parent="1" source="6UBSCnJgMbBsTfhwPMBy-228" target="6UBSCnJgMbBsTfhwPMBy-6" edge="1">
                    <mxGeometry width="50" height="50" relative="1" as="geometry">
                        <mxPoint x="910" y="-580" as="sourcePoint"/>
                        <mxPoint x="960" y="-630" as="targetPoint"/>
                        <Array as="points">
                            <mxPoint x="1260" y="-730"/>
                        </Array>
                    </mxGeometry>
                </mxCell>
                <mxCell id="20" value="" style="shape=flexArrow;endArrow=classic;html=1;width=5.714285714285714;endSize=8.066666666666666;exitX=0;exitY=0.5;exitDx=0;exitDy=0;endWidth=29.523809523809522;entryX=1;entryY=0.5;entryDx=0;entryDy=0;" parent="1" source="6UBSCnJgMbBsTfhwPMBy-139" target="6UBSCnJgMbBsTfhwPMBy-3" edge="1">
                    <mxGeometry width="50" height="50" relative="1" as="geometry">
                        <mxPoint x="375" y="-300.5" as="sourcePoint"/>
                        <mxPoint x="425" y="-350.5" as="targetPoint"/>
                    </mxGeometry>
                </mxCell>
            </root>
        </mxGraphModel>
    </diagram>
</mxfile>